<svg width="36" height="36" viewBox="0 0 36 36" fill="none" xmlns="http://www.w3.org/2000/svg">
<g id="logo">
<circle id="Ellipse 1" cx="18" cy="18" r="18" fill="#3C0D79"/>
<g id="Group 1">
<path id="Subtract" fill-rule="evenodd" clip-rule="evenodd" d="M22.713 4.31543H29.754V30.4353H26.6309L22.713 23.5073V21.4636H22.713V4.31543ZM21.5773 23.1023L21.5772 23.1026V10.448H14.5362V22.4857H14.5362V25.3275L18.3407 30.4353H14.5362V30.4354H21.5772V30.4353H21.5773V23.1023ZM22.713 30.4353H26.6309L26.6309 30.4353H22.713V30.4353ZM21.5772 30.4353V23.1026L18.3407 30.4353H21.5772ZM8.00629 30.4353H13.4006V30.4353H8.0063L12.2082 22.2019L13.4006 23.8028V22.4857H13.4006V15.899H6.35962V30.4353H8.0063L8.00629 30.4353Z" fill="white"/>
<path id="Vector 3" d="M10.5615 30.4354L12.3218 26.4038L15.3312 30.4354H10.5615Z" fill="white"/>
<path id="Vector 4" d="M20.612 30.4351L22.0883 26.6875L24.1893 30.4351H20.612Z" fill="white"/>
</g>
</g>
</svg>
